#!OML:ASF \\sashay\E\basketball\basketball\Project 1\Capture day 1\Session 1\Subject.ASF
:FULLY-SPECIFIED
:DEGREES
231
root -27.8002 12.4278 8.1848 -0.803457 -24.9945 -8.6836
lowerback 45.3107 0.0976767 2.18631
upperback 13.6557 0.803798 3.98817
thorax -5.66632 -0.0373243 2.84859
lowerneck 3.85525 -10.7435 -10.3863
upperneck -26.3948 -10.4933 31.6657
head -5.65727 -7.57554 13.3661
rclavicle 2.98177e-014 -5.87409e-014
rhumerus 1.14214 -26.3535 -79.9262
rradius 60.5363
rwrist -39.6456
rhand -38.5008 49.6709
rfingers 7.12502
rthumb -11.5223 20.0076
lclavicle 2.98177e-014 -5.87409e-014
lhumerus -32.147 19.8585 64.9138
lradius 51.4061
lwrist 47.8133
lhand -12.3015 17.7887
lfingers 7.12502
lthumb 13.7664 47.3133
rfemur -56.2811 -14.3107 14.1365
rtibia 77.4431
rfoot -3.35538 -1.52371
rtoes -18.5442
lfemur -68.2514 17.7879 -21.4949
ltibia 72.0759
lfoot 7.63555 -9.80235
ltoes -6.35445
232
root -27.9703 12.457 8.27263 -0.879344 -25.2622 -8.03285
lowerback 45.5436 0.217068 1.96972
upperback 13.7301 0.815016 3.62613
thorax -5.63655 -0.0228569 2.56766
lowerneck 3.20312 -10.7915 -10.1561
upperneck -26.2708 -10.5203 31.7489
head -5.49885 -7.57979 13.2751
rclavicle -1.00883e-014 -2.37548e-014
rhumerus 0.787739 -26.8004 -80.1763
rradius 60.8216
rwrist -39.6694
rhand -38.4221 49.551
rfingers 7.12502
rthumb -11.4463 19.8835
lclavicle -1.00883e-014 -2.37548e-014
lhumerus -31.7223 19.8383 63.6693
lradius 51.0329
lwrist 47.7411
lhand -14.3599 17.934
lfingers 7.12502
lthumb 11.7821 47.5826
rfemur -55.4602 -13.7338 13.6449
rtibia 73.7606
rfoot -2.43036 -4.96768
rtoes -28.4013
lfemur -68.4346 18.2854 -21.3825
ltibia 72.6954
lfoot 7.89866 -10.5348
ltoes -7.59044
233
root -28.1385 12.4801 8.36313 -0.913613 -25.5063 -7.36154
lowerback 45.7423 0.294819 1.84508
upperback 13.7571 0.81392 3.2146
thorax -5.64662 -0.0071113 2.19198
lowerneck 3.09344 -10.9059 -10.2878
upperneck -26.6369 -10.5634 32.2885
head -5.51359 -7.66482 13.5423
rclavicle 3.70733e-014 3.10104e-014
rhumerus 0.381113 -27.2335 -80.4538
rradius 60.899
rwrist -39.7556
rhand -38.3027 50.0985
rfingers 7.12502
rthumb -11.3312 20.4246
lclavicle 3.70733e-014 3.10104e-014
lhumerus -31.0589 19.7992 62.3704
lradius 50.2236
lwrist 47.8578
lhand -15.5875 18.1425
lfingers 7.12502
lthumb 10.5981 47.8553
rfemur -54.5475 -12.8376 12.7088
rtibia 69.9673
rfoot -1.96582 -6.79388
rtoes -32.4378
lfemur -68.5467 18.435 -21.2531
ltibia 73.23
lfoot 7.83795 -10.8368
ltoes -9.80661
234
root -28.2811 12.5506 8.42621 -0.708602 -25.6729 -6.98457
lowerback 45.7564 0.21084 1.86912
upperback 13.7297 0.699459 2.95557
thorax -5.67018 -0.0465823 1.94964
lowerneck 3.19215 -10.8541 -10.5996
upperneck -26.9638 -10.4808 32.2958
head -5.62384 -7.62125 13.6607
rclavicle 5.45664e-014 -4.56211e-014
rhumerus 0.0247014 -27.2525 -80.6384
rradius 60.7043
rwrist -39.5412
rhand -38.0926 50.832
rfingers 7.12502
rthumb -11.1286 21.1471
lclavicle 5.45664e-014 -4.56211e-014
lhumerus -30.7029 20.3254 60.9514
lradius 48.9693
lwrist 47.0549
lhand -12.9342 18.0302
lfingers 7.12502
lthumb 13.1566 47.5951
rfemur -54.4511 -12.441 12.2229
rtibia 68.8227
rfoot -7.02851 -5.18228
rtoes 42.8839
lfemur -68.4804 18.7342 -21.2017
ltibia 73.4055
lfoot 7.70516 -10.8872
ltoes -9.84341
235
root -28.4456 12.5502 8.5101 -0.41931 -25.7555 -6.55985
lowerback 45.5424 0.122109 1.84554
upperback 13.6858 0.56484 2.74523
thorax -5.6591 -0.0953433 1.79012
lowerneck 3.36477 -10.803 -11.894
upperneck -26.9585 -10.4299 33.2981
head -5.44724 -7.58669 14.3226
rclavicle -1.94809e-014 -6.85807e-015
rhumerus -0.254057 -27.364 -80.7796
rradius 60.3318
rwrist -39.0706
rhand -37.9478 50.9255
rfingers 7.12502
rthumb -10.989 21.2331
lclavicle -1.94809e-014 -6.85807e-015
lhumerus -30.4499 21.3075 59.3698
lradius 47.2173
lwrist 44.2916
lhand -10.8191 17.6522
lfingers 7.12502
lthumb 15.1948 47.0742
rfemur -55.1125 -12.3537 11.6974
rtibia 68.9681
rfoot -10.1473 -3.25542
rtoes 59.2512
lfemur -69.0543 19.3615 -21.4757
ltibia 74.0388
lfoot 7.67102 -10.7473
ltoes -7.80434
236
root -28.6048 12.5381 8.5893 -0.243848 -25.8048 -5.94247
lowerback 45.2479 0.159706 1.523
upperback 13.6403 0.466502 2.63709
thorax -5.63916 -0.138075 1.87609
lowerneck 1.89936 -10.8693 -12.333
upperneck -25.8194 -10.7098 33.1468
head -4.72225 -7.51347 14.0126
rclavicle 2.65378e-014 -2.04251e-014
rhumerus -0.43522 -27.3896 -80.7397
rradius 59.7872
rwrist -38.8414
rhand -37.9243 51.5256
rfingers 7.12502
rthumb -10.9662 21.832
lclavicle 2.65378e-014 -2.04251e-014
lhumerus -30.4233 21.0164 58.617
lradius 47.3623
lwrist 46.7634
lhand -15.365 18.9504
lfingers 7.12502
lthumb 10.8127 48.6521
rfemur -57.155 -14.2109 12.9002
rtibia 71.5811
rfoot -3.33661 -1.47621
rtoes 4.76298
lfemur -69.9178 20.3459 -22.3444
ltibia 74.8103
lfoot 7.61182 -10.6113
ltoes -7.08884
237
root -28.7623 12.5078 8.66689 -0.255881 -25.7946 -5.31465
lowerback 45.0743 0.222517 1.12975
upperback 13.6092 0.381714 2.63482
thorax -5.6356 -0.18281 2.10662
lowerneck 1.63098 -10.7834 -12.6959
upperneck -25.6872 -10.6572 32.9114
head -4.63723 -7.40445 13.9483
rclavicle 3.6477e-014 4.60187e-014
rhumerus -0.495966 -27.2771 -80.5677
rradius 59.0307
rwrist -38.8593
rhand -37.9859 53.4439
rfingers 7.12502
rthumb -11.0257 23.7535
lclavicle 3.6477e-014 4.60187e-014
lhumerus -30.5105 21.1196 57.7902
lradius 47.2342
lwrist 47.863
lhand -15.9828 18.8518
lfingers 7.12502
lthumb 10.2167 48.5837
rfemur -58.5071 -15.4181 13.4476
rtibia 73.6706
rfoot -4.71429 2.2874
rtoes -34.6668
lfemur -70.5758 21.0747 -23.0886
ltibia 75.7624
lfoot 7.19766 -10.3772
ltoes -8.43202
238
root -28.9121 12.4838 8.73742 -0.586579 -25.7247 -4.80612
lowerback 45.177 0.259235 0.850421
upperback 13.705 0.315189 2.73115
thorax -5.5585 -0.227241 2.3786
lowerneck 1.88053 -10.7853 -13.1902
upperneck -26.0929 -10.686 32.739
head -4.77306 -7.3932 14.0369
rclavicle -4.77332e-014 2.82647e-014
rhumerus -0.272213 -27.2189 -80.4228
rradius 58.1827
rwrist -38.9439
rhand -38.8703 53.0251
rfingers 7.12502
rthumb -11.8786 23.382
lclavicle -4.77332e-014 2.82647e-014
lhumerus -30.4693 21.9514 57.0721
lradius 46.8918
lwrist 48.0889
lhand -15.93 18.8506
lfingers 7.12502
lthumb 10.2677 48.58
rfemur -58.6401 -15.7518 13.3201
rtibia 74.8472
rfoot -3.18935 2.70877
rtoes -34.9496
lfemur -70.2733 21.4841 -23.2737
ltibia 76.5035
lfoot 6.60172 -9.94773
ltoes -7.67549
239
root -29.0477 12.495 8.7936 -1.13938 -25.706 -4.5452
lowerback 45.5787 0.247086 1.00172
upperback 13.8023 0.34737 2.59964
thorax -5.54559 -0.206064 2.15012
lowerneck 2.10614 -10.7601 -13.5556
upperneck -26.4152 -10.5818 33.1988
head -4.85757 -7.38238 14.3652
rclavicle -2.19843e-014 6.16854e-015
rhumerus -0.216351 -27.7623 -80.639
rradius 57.5051
rwrist -39.0197
rhand -39.2784 52.7377
rfingers 7.12502
rthumb -12.2721 23.1177
lclavicle -2.19843e-014 6.16854e-015
lhumerus -30.2012 22.4792 56.1101
lradius 46.5271
lwrist 48.4356
lhand -15.6638 18.7766
lfingers 7.12502
lthumb 10.5244 48.4932
rfemur -57.8964 -15.949 13.4487
rtibia 75.2935
rfoot -2.12216 2.4668
rtoes -36.384
lfemur -69.9652 22.7068 -23.7027
ltibia 77.1706
lfoot 5.69391 -10.5441
ltoes -11.7235
240
root -29.1897 12.4835 8.85686 -1.56016 -25.7317 -4.69553
lowerback 46.0592 0.168281 1.1106
upperback 13.8844 0.304341 2.71546
thorax -5.56998 -0.237947 2.23962
lowerneck 2.33922 -10.6422 -13.6857
upperneck -26.7635 -10.4299 32.9032
head -5.06801 -7.2959 14.3551
rclavicle 8.72168e-015 -5.78836e-014
rhumerus 0.083675 -27.7035 -80.7763
rradius 56.7798
rwrist -39.2004
rhand -36.4158 61.2825
rfingers 7.12502
rthumb -9.51102 31.5172
lclavicle 8.72168e-015 -5.78836e-014
lhumerus -30.5739 23.4125 55.141
lradius 46.3504
lwrist 48.6358
lhand -15.3664 18.2964
lfingers 7.12502
lthumb 10.8113 47.9982
rfemur -56.5467 -15.5238 12.9427
rtibia 75.4276
rfoot -0.507444 2.81031
rtoes -11.1828
lfemur -69.7183 23.5981 -23.3954
ltibia 77.9052
lfoot 4.94908 -10.4719
ltoes -13.4569
241
root -29.3255 12.4816 8.92062 -1.70509 -25.6881 -5.09222
lowerback 46.3952 0.00521003 1.32676
upperback 13.8998 0.218771 2.88704
thorax -5.62998 -0.287669 2.35204
lowerneck 2.99695 -10.5897 -14.2753
upperneck -27.0045 -10.4121 33.113
head -5.19872 -7.30306 14.6511
rclavicle 8.07563e-015 -2.3264e-014
rhumerus 0.405454 -27.561 -80.9035
rradius 55.951
rwrist -39.2396
rhand -38.682 54.1732
rfingers 7.12502
rthumb -11.697 24.5197
lclavicle 8.07563e-015 -2.3264e-014
lhumerus -31.2997 24.2398 54.1468
lradius 46.4805
lwrist 48.6267
lhand -15.6628 18.1521
lfingers 7.12502
lthumb 10.5254 47.8686
rfemur -56.2843 -15.7576 13.5696
rtibia 76.2229
rfoot 0.165246 3.07173
rtoes -5.44396
lfemur -69.2488 24.0185 -22.9012
ltibia 78.3318
lfoot 3.57224 -9.96378
ltoes -17.6904
